<svg fill="none" height="175" viewBox="0 0 175 175" width="175" xmlns="http://www.w3.org/2000/svg" xmlns:xlink="http://www.w3.org/1999/xlink"><clipPath id="a"><path d="m40.3477 46.3545h84.2843v85.2877h-84.2843z"/></clipPath><path d="m123.078 42.6294c34.776.4325-13.423 45.7358-3.687 79.5746 9.735 33.839-18.805 22.223-34.7044 12.517s-54.3115 7.321-47.4877-22.487c6.8237-29.8085-30.78343-71.8137 21.7687-64.5808 52.5524 7.2328 29.334-5.4564 64.1104-5.0238z" fill="#caffdf"/><g clip-path="url(#a)" fill="#77daa0"><path d="m58.2332 78.8121c-5.0084 0-9.0831 4.1232-9.0831 9.1913s4.0747 9.1912 9.0831 9.1912c5.0085 0 9.0832-4.1231 9.0832-9.1912s-4.0747-9.1913-9.0832-9.1913zm0 13.3855c-2.2853 0-4.1449-1.8815-4.1449-4.1942 0-2.3128 1.8596-4.1943 4.1449-4.1943 2.2854 0 4.145 1.8815 4.145 4.1943 0 2.3127-1.8596 4.1942-4.145 4.1942z"/><path d="m74.3179 100.521c-5.0083 0-9.083 4.123-9.083 9.191s4.0747 9.191 9.083 9.191c5.0085 0 9.0831-4.123 9.0831-9.191s-4.0746-9.191-9.0831-9.191zm0 13.385c-2.2854 0-4.1448-1.882-4.1448-4.194 0-2.313 1.8594-4.195 4.1448-4.195 2.2856 0 4.1449 1.882 4.1449 4.195.0002 2.312-1.8593 4.194-4.1449 4.194z"/><path d="m122.028 100.441c-.017-.016-.033-.032-.049-.048l-8.55-8.1645c4.786-3.662 6.948-10.144 4.982-16.1405-9.27-28.2987-44.8892-37.2766-66.1132-16.1244-15.8957 15.8419-15.7473 41.3854-.6657 57.1154 13.5488 14.131 34.8978 16.115 50.6549 5.678 7.379-4.886 3.986-16.516-4.8434-16.516-6.5946 0-7.7028-9.3305-1.4735-10.9281l15.0629 16.1541c.016.016.032.033.048.05 3.02 3.062 7.925 3.07 10.952.007s3.027-8.022-.005-11.083zm-31.9034 7.847c1.9839 1.902 4.583 2.95 7.3191 2.95 3.9433 0 5.4303 5.159 2.1389 7.338-13.7909 9.135-32.5211 7.419-44.4063-4.977-13.3304-13.9028-13.2519-36.2149.6413-50.0435 18.6172-18.5304 49.7554-10.7779 57.9054 14.1053 1.381 4.2116-.344 8.788-3.964 11.0639l-13.7149-13.0961c.8304-4.0342-.3196-8.2871-3.3328-11.336-3.7818-3.8269-15.6957-5.7344-20.8589-6.3019-1.566-.1726-2.892 1.167-2.7216 2.754.5654 5.245 2.4394 17.2734 6.228 21.1072 3.0151 3.0507 7.2201 4.2121 11.2037 3.372l5.7771 6.1954c-6.1518 3.3794-7.4009 11.8957-2.215 16.8687zm-11.2741-29.9695c-1.8607-1.8829-3.5232-9.0439-4.4009-14.9459 5.8327.8881 12.9095 2.5705 14.77 4.4533 2.865 2.8991 2.8655 7.5926 0 10.4926-2.8586 2.8929-7.4979 2.9054-10.3691 0zm39.6905 29.6715c-1.088 1.101-2.849 1.106-3.943.018-1.264-1.355-22.105-23.7052-23.2662-24.9504.9742-.7321 1.8473-1.6156 2.5718-2.6024l24.6574 23.5448c1.076 1.108 1.07 2.887-.02 3.99z"/></g></svg>